<?xml version="1.0" encoding="UTF-8"?>
<svg width="34px" height="34px" viewBox="0 0 34 34" version="1.1" xmlns="http://www.w3.org/2000/svg" xmlns:xlink="http://www.w3.org/1999/xlink">
    <!-- Generator: Sketch 41.2 (35397) - http://www.bohemiancoding.com/sketch -->
    <title>Group</title>
    <desc>Created with Sketch.</desc>
    <defs></defs>
    <g id="V1.0" stroke="none" stroke-width="1" fill="none" fill-rule="evenodd">
        <g id="HOME-HOVER" transform="translate(-703.000000, -1629.000000)" fill="#FFFFFF">
            <g id="ADVENTURES" transform="translate(0.000000, 1313.000000)">
                <g id="art_2" transform="translate(529.000000, 165.000000)">
                    <g id="paper-button-2" transform="translate(143.000000, 149.000000)">
                        <g id="Group" transform="translate(31.000000, 2.000000)">
                            <path d="M34,7.36666667 C34,7.31 34,7.25333333 33.9433333,7.19666667 L33.9433333,7.14 C33.8866667,7.08333333 33.8866667,7.02666667 33.83,6.97 L27.03,0.17 C26.9733333,0.113333333 26.9166667,0.113333333 26.86,0.0566666667 L26.8033333,0.0566666667 C26.7466667,0.0566666667 26.69,0 26.6333333,0 L26.6333333,0 L0.566666667,0 C0.226666667,0 0,0.226666667 0,0.566666667 L0,34 L1.13333333,34 L1.13333333,1.13333333 L26.0666667,1.13333333 L26.0666667,7.36666667 C26.0666667,7.70666667 26.2933333,7.93333333 26.6333333,7.93333333 L32.8666667,7.93333333 L32.8666667,34 L34,34 L34,7.36666667 L34,7.36666667 L34,7.36666667 Z M27.2,6.8 L27.2,1.92666667 L32.0733333,6.8 L27.2,6.8 L27.2,6.8 Z" id="Shape"></path>
                            <rect id="Rectangle-path" x="3" y="3" width="6" height="1"></rect>
                            <rect id="Rectangle-path" x="3" y="6" width="8" height="1"></rect>
                            <rect id="Rectangle-path" x="3" y="11" width="24" height="1"></rect>
                            <rect id="Rectangle-path" x="3" y="14" width="27" height="1"></rect>
                            <rect id="Rectangle-path" x="3" y="23" width="19" height="1"></rect>
                            <rect id="Rectangle-path" x="3" y="26" width="27" height="1"></rect>
                            <rect id="Rectangle-path" x="3" y="29" width="27" height="1"></rect>
                        </g>
                    </g>
                </g>
            </g>
        </g>
    </g>
</svg>