<svg xmlns="http://www.w3.org/2000/svg" viewBox="0 0 220 39"><g transform="translate(0 -9)"><circle cx="214.5" cy="41.5" r="5.5" fill="#f06565"/><path d="M58.2 15c-.8.8-1.6 1.7-2.2 2.7-.6 1.1-1.4 2.5-2.4 4.4l-13 25.8-8.8-20.3-11.8 20L6.6 19.8c-.8-1.7-1.7-3.1-2.7-4.1-.9-1-2.2-1.6-3.8-1.9v-.6h18.4v.6c-1.6.3-2.4 1.1-2.4 2.4 0 1 .4 2.3 1.2 3.9L24.6 35l5.7-9.5-2.6-6c-.1-.2-.4-.9-.8-2-.5-1.1-1-1.9-1.8-2.5-.7-.6-1.6-1-2.6-1.2v-.6h17.4v.6c-1.9.4-2.8 1.4-2.8 2.9 0 1.2.5 2.7 1.4 4.6l5.9 12.3 1.7-3.5c2.3-4.6 3.4-8.7 3.4-12.3 0-.9-.3-1.7-.9-2.5-.6-.8-1.5-1.3-2.5-1.6v-.6h15v.6c-1.1.2-2 .6-2.9 1.3zM60.7 45.4c1.4 0 2.4-.3 2.9-.9.6-.6.9-1.5.9-2.9V29.2c0-1.1 0-1.8-.1-2.3-.1-.5-.3-.8-.7-1.1-.4-.2-1-.4-1.9-.4v-.6h1c.5 0 1.2-.1 2-.3.8-.2 1.7-.4 2.6-.7 1.1-.4 2-.8 2.9-1.2.8-.4 1.4-.8 1.9-1 .4-.3.7-.5.8-.6v20.6c0 1.3.3 2.3.9 2.9.6.6 1.6.9 2.9.9v.6H60.7v-.6zm11-34.7c1 1 1.5 2.1 1.5 3.5s-.5 2.5-1.5 3.5-2.2 1.4-3.5 1.4c-1.4 0-2.5-.5-3.5-1.4-1-1-1.4-2.1-1.4-3.5s.5-2.5 1.4-3.5 2.1-1.4 3.5-1.4 2.6.5 3.5 1.4zM100.4 42.3c-.9 1.3-2 2.4-3.6 3.2-1.5.8-3.2 1.2-5.1 1.2-1.6 0-3.1-.1-4.5-.4-1.4-.3-3.1-.8-5.1-1.4l-1.5-.5-.7-8.9h.4c1.2 2.7 2.8 5 5 6.8 2.1 1.9 4.3 2.8 6.5 2.8 1.2 0 2.2-.2 2.8-.6s1-1 1-2c0-1.1-.4-2-1.2-2.7-.8-.7-2.2-1.4-4.2-2.1l-2.5-.8c-2.6-.9-4.6-1.9-5.9-3-1.3-1.1-2-2.7-2-4.8 0-1.4.4-2.7 1.3-4 .8-1.2 2-2.2 3.5-2.9 1.5-.7 3.1-1.1 5-1.1 1.3 0 2.6.1 3.9.3 1.3.2 2.4.4 3.3.6.9.2 1.4.3 1.7.4l.7 6.9h-.4c-1.2-2.3-2.6-4.1-4.3-5.3-1.7-1.2-3.3-1.8-4.9-1.8-2.2 0-3.3.9-3.3 2.8 0 1.2.5 2.1 1.5 2.9 1 .7 2.3 1.3 3.9 1.8l2.8.9c2.4.7 4.2 1.7 5.4 2.8 1.2 1.1 1.8 2.6 1.8 4.4 0 1.6-.5 3.1-1.3 4.5zM125.5 42.3c-.9 1.3-2 2.4-3.6 3.2-1.5.8-3.2 1.2-5.1 1.2-1.6 0-3.1-.1-4.5-.4-1.4-.3-3.1-.8-5.1-1.4l-1.5-.5-.7-8.9h.4c1.2 2.7 2.8 5 5 6.8 2.1 1.9 4.3 2.8 6.5 2.8 1.2 0 2.2-.2 2.8-.6s1-1 1-2c0-1.1-.4-2-1.2-2.7-.8-.7-2.2-1.4-4.2-2.1l-2.5-.8c-2.6-.9-4.6-1.9-5.9-3-1.3-1.1-2-2.7-2-4.8 0-1.4.4-2.7 1.3-4 .8-1.2 2-2.2 3.5-2.9s3.1-1.1 5-1.1c1.3 0 2.6.1 3.9.3 1.3.2 2.4.4 3.3.6.9.2 1.4.3 1.7.4l.7 6.9h-.4c-1.2-2.3-2.6-4.1-4.3-5.3-1.7-1.2-3.3-1.8-4.9-1.8-2.2 0-3.3.9-3.3 2.8 0 1.2.5 2.1 1.5 2.9 1 .7 2.3 1.3 3.9 1.8l2.8.9c2.4.7 4.2 1.7 5.4 2.8s1.8 2.6 1.8 4.4c0 1.6-.4 3.1-1.3 4.5zM150.5 44c-2.1 1.7-4.7 2.6-7.9 2.6-2.2 0-4.2-.5-6.1-1.6-1.9-1.1-3.5-2.6-4.6-4.5-1.2-1.9-1.7-4-1.7-6.4 0-2.4.6-4.5 1.8-6.5s2.8-3.6 4.8-4.8 4.2-1.8 6.6-1.8c2.1 0 4.1.5 5.9 1.4 1.8 1 3.2 2.2 4.2 3.9 1 1.6 1.5 3.4 1.5 5.2h-15.6c0 3.1.7 5.4 2.1 6.8 1.4 1.5 3.3 2.2 5.8 2.2 3.4 0 5.9-1.5 7.7-4.6l.6.2c-1.3 3.6-3 6.2-5.1 7.9zm-7.2-22.4c-1.2 0-2.2.9-3 2.6-.7 1.7-1.1 4-1.1 6.8h7.4v-1.6c0-5.2-1.1-7.8-3.3-7.8zM198.3 26.5c-1.7 2.2-3 4.3-3.9 6.2l-6.9 14.4-7.7-17.2-8.5 17.2-9.7-20.1c-.8-1.6-1.5-2.7-2.1-3.4-.7-.7-1.7-1.2-3-1.3v-.6h14.6v.6c-.5.2-.9.4-1.2.6-.2.2-.4.5-.4 1 0 .6.3 1.5.9 2.8l4.2 9.3 4.3-7.9-1.4-3.1c-.4-.9-.8-1.5-1.3-1.8-.5-.4-1.2-.6-2.2-.8v-.6h14.6v.6c-.8.1-1.3.3-1.7.6-.4.3-.5.7-.5 1.2 0 1.3.6 3 1.7 5.1l3.8 6.9 1.3-2.4c.6-1.2 1.1-2.4 1.5-3.8s.5-2.6.5-3.8c0-1-.2-1.9-.7-2.6-.4-.7-1.1-1.1-1.8-1.3v-.6h11v.6c-1.9.6-3.6 2-5.4 4.2z"/></g></svg>